#usda 1.0
(
    defaultPrim = "Resolved"
    metersPerUnit = 1
    timeCodesPerSecond = 24
    upAxis = "Z"
)

def CoordinateReferenceSystem "Resolved"
{
    uniform token crs:wkt = 'PROJCRS["WGS 84 / UTM zone 31N",BASEGEOGCRS["WGS 84",ENSEMBLE["World Geodetic System 1984 ensemble",MEMBER["World Geodetic System 1984 (Transit)"],MEMBER["World Geodetic System 1984 (G730)"],MEMBER["World Geodetic System 1984 (G873)"],MEMBER["World Geodetic System 1984 (G1150)"],MEMBER["World Geodetic System 1984 (G1674)"],MEMBER["World Geodetic System 1984 (G1762)"],MEMBER["World Geodetic System 1984 (G2139)"],MEMBER["World Geodetic System 1984 (G2296)"],ELLIPSOID["WGS 84",6378137.0,298.257223563,LENGTHUNIT["metre",1.0]],ENSEMBLEACCURACY[2.0]],PRIMEM["Greenwich",0.0,ANGLEUNIT["degree",0.0174532925199433]],ID["EPSG",4979]],CONVERSION["UTM zone 31N",METHOD["Transverse Mercator",ID["EPSG",9807]],PARAMETER["Latitude of natural origin",0.0,ANGLEUNIT["degree",0.0174532925199433],ID["EPSG",8801]],PARAMETER["Longitude of natural origin",3.0,ANGLEUNIT["degree",0.0174532925199433],ID["EPSG",8802]],PARAMETER["Scale factor at natural origin",0.9996,SCALEUNIT["unity",1.0],ID["EPSG",8805]],PARAMETER["False easting",500000.0,LENGTHUNIT["metre",1.0],ID["EPSG",8806]],PARAMETER["False northing",0.0,LENGTHUNIT["metre",1.0],ID["EPSG",8807]],ID["EPSG",16031]],CS[Cartesian,3],AXIS["(E)",east,ORDER[1],LENGTHUNIT["metre",1.0,ID["EPSG",9001]]],AXIS["(N)",north,ORDER[2],LENGTHUNIT["metre",1.0,ID["EPSG",9001]]],AXIS["ellipsoidal height (h)",up,ORDER[3],LENGTHUNIT["metre",1.0,ID["EPSG",9001]]],USAGE[SCOPE["unknown"],AREA["Between 0°E and 6°E, northern hemisphere between equator and 84°N, onshore and offshore. Algeria. Andorra. Belgium. Benin. Burkina Faso. Denmark - North Sea. France. Germany - North Sea. Ghana. Luxembourg. Mali. Netherlands. Niger. Nigeria. Norway. Spain. Togo. United Kingdom (UK) - North Sea."],BBOX[0.0,0.0,84.0,6.0]],REMARK["Promoted to 3D from EPSG:32631"]]'

    def Mesh "Part0" (
        apiSchemas = None
    )
    {
        int[] faceVertexCounts = [3]
        int[] faceVertexIndices = [0, 1, 2]
        point3f[] points = [(0, 0, 0), (8.021279, -3.0081334, -5.0000024), (8.021329, -2.0054543, -5.0000024)]
        point3f[] points.timeSamples = {
            0: [(0, 0, 0), (8.021279, -3.0081334, -5.0000024), (8.021329, -2.0054543, -5.0000024)],
        }
        color3f[] primvars:displayColor = [(0.12, 0.48, 0.62)]
        uniform token subdivisionScheme = "none"
        double3 xformOp:translate = (998.9787705085473, 2012.010812665632, 44.00000251736492)
        uniform token[] xformOpOrder = ["xformOp:translate"]
    }

    def Mesh "Part1" (
        apiSchemas = None
    )
    {
        int[] faceVertexCounts = [3]
        int[] faceVertexIndices = [0, 1, 2]
        point3f[] points = [(0, 0, 0), (1.0026952, -4.9565057e-7, 7.916242e-8), (5.0192466e-7, 1.0026953, 7.916242e-8)]
        point3f[] points.timeSamples = {
            0: [(0, 0, 0), (1.0026952, -4.9565057e-7, 7.916242e-8), (5.0192466e-7, 1.0026953, 7.916242e-8)],
        }
        color3f[] primvars:displayColor = [(0.12, 0.48, 0.62)]
        uniform token subdivisionScheme = "none"
        double3 xformOp:translate = (20.000000000116415, 40, 5)
        uniform token[] xformOpOrder = ["xformOp:translate"]
    }
}

