#usda 1.0
(
    defaultPrim = "Resolved"
    metersPerUnit = 1
    timeCodesPerSecond = 24
    upAxis = "Z"
)

def CoordinateReferenceSystem "Resolved"
{
    uniform token crs:wkt = 'PROJCRS["WGS 84 / UTM zone 31N",BASEGEOGCRS["WGS 84",ENSEMBLE["World Geodetic System 1984 ensemble",MEMBER["World Geodetic System 1984 (Transit)"],MEMBER["World Geodetic System 1984 (G730)"],MEMBER["World Geodetic System 1984 (G873)"],MEMBER["World Geodetic System 1984 (G1150)"],MEMBER["World Geodetic System 1984 (G1674)"],MEMBER["World Geodetic System 1984 (G1762)"],MEMBER["World Geodetic System 1984 (G2139)"],MEMBER["World Geodetic System 1984 (G2296)"],ELLIPSOID["WGS 84",6378137.0,298.257223563,LENGTHUNIT["metre",1.0]],ENSEMBLEACCURACY[2.0]],PRIMEM["Greenwich",0.0,ANGLEUNIT["degree",0.0174532925199433]],ID["EPSG",4979]],CONVERSION["UTM zone 31N",METHOD["Transverse Mercator",ID["EPSG",9807]],PARAMETER["Latitude of natural origin",0.0,ANGLEUNIT["degree",0.0174532925199433],ID["EPSG",8801]],PARAMETER["Longitude of natural origin",3.0,ANGLEUNIT["degree",0.0174532925199433],ID["EPSG",8802]],PARAMETER["Scale factor at natural origin",0.9996,SCALEUNIT["unity",1.0],ID["EPSG",8805]],PARAMETER["False easting",500000.0,LENGTHUNIT["metre",1.0],ID["EPSG",8806]],PARAMETER["False northing",0.0,LENGTHUNIT["metre",1.0],ID["EPSG",8807]],ID["EPSG",16031]],CS[Cartesian,3],AXIS["(E)",east,ORDER[1],LENGTHUNIT["metre",1.0,ID["EPSG",9001]]],AXIS["(N)",north,ORDER[2],LENGTHUNIT["metre",1.0,ID["EPSG",9001]]],AXIS["ellipsoidal height (h)",up,ORDER[3],LENGTHUNIT["metre",1.0,ID["EPSG",9001]]],USAGE[SCOPE["unknown"],AREA["Between 0°E and 6°E, northern hemisphere between equator and 84°N, onshore and offshore. Algeria. Andorra. Belgium. Benin. Burkina Faso. Denmark - North Sea. France. Germany - North Sea. Ghana. Luxembourg. Mali. Netherlands. Niger. Nigeria. Norway. Spain. Togo. United Kingdom (UK) - North Sea."],BBOX[0.0,0.0,84.0,6.0]],REMARK["Promoted to 3D from EPSG:32631"]]'

    def Mesh "Part0" (
        apiSchemas = None
    )
    {
        int[] faceVertexCounts = [3]
        int[] faceVertexIndices = [0, 1, 2]
        point3f[] points = [(0, 0, 0), (1.9978155, 0.0876829, 3.1292439e-7), (-0.13152437, 2.9967232, 7.0407987e-7)]
        point3f[] points.timeSamples = {
            0: [(0, 0, 0), (1.9978155, 0.0876829, 3.1292439e-7), (-0.13152437, 2.9967232, 7.0407987e-7)],
        }
        color3f[] primvars:displayColor = [(0.12, 0.48, 0.62)]
        uniform token subdivisionScheme = "none"
        double3 xformOp:translate = (650000.0000000001, 6860000, 40)
        uniform token[] xformOpOrder = ["xformOp:translate"]
    }

    def Mesh "Part1" (
        apiSchemas = None
    )
    {
        int[] faceVertexCounts = [3]
        int[] faceVertexIndices = [0, 1, 2]
        point3f[] points = [(0, 0, 0), (1.9978154, 0.08768874, 3.1199306e-7), (-0.13153312, 2.996723, 7.0314854e-7)]
        point3f[] points.timeSamples = {
            0: [(0, 0, 0), (1.9978154, 0.08768874, 3.1199306e-7), (-0.13153312, 2.996723, 7.0314854e-7)],
        }
        color3f[] primvars:displayColor = [(0.12, 0.48, 0.62)]
        uniform token subdivisionScheme = "none"
        double3 xformOp:translate = (650009.9999999999, 6860000, 40.000000001862645)
        uniform token[] xformOpOrder = ["xformOp:translate"]
    }

    def Mesh "Part2" (
        apiSchemas = None
    )
    {
        int[] faceVertexCounts = [3]
        int[] faceVertexIndices = [0, 1, 2]
        point3f[] points = [(0, 0, 0), (1.9978151, 0.08769457, 3.1199306e-7), (-0.13154188, 2.9967227, 7.0314854e-7)]
        point3f[] points.timeSamples = {
            0: [(0, 0, 0), (1.9978151, 0.08769457, 3.1199306e-7), (-0.13154188, 2.9967227, 7.0314854e-7)],
        }
        color3f[] primvars:displayColor = [(0.12, 0.48, 0.62)]
        uniform token subdivisionScheme = "none"
        double3 xformOp:translate = (650020, 6860000, 40.00000000093132)
        uniform token[] xformOpOrder = ["xformOp:translate"]
    }

    def Mesh "Part3" (
        apiSchemas = None
    )
    {
        int[] faceVertexCounts = [3]
        int[] faceVertexIndices = [0, 1, 2]
        point3f[] points = [(0, 0, 0), (1.9978155, 0.08768422, 3.1292439e-7), (-0.13152634, 2.9967232, 7.050112e-7)]
        point3f[] points.timeSamples = {
            0: [(0, 0, 0), (1.9978155, 0.08768422, 3.1292439e-7), (-0.13152634, 2.9967232, 7.050112e-7)],
        }
        color3f[] primvars:displayColor = [(0.12, 0.48, 0.62)]
        uniform token subdivisionScheme = "none"
        double3 xformOp:translate = (649999.9999999999, 6860040, 40)
        uniform token[] xformOpOrder = ["xformOp:translate"]
    }

    def Mesh "Part4" (
        apiSchemas = None
    )
    {
        int[] faceVertexCounts = [3]
        int[] faceVertexIndices = [0, 1, 2]
        point3f[] points = [(0, 0, 0), (1.9978155, 0.08768422, 0.0000034393743), (-0.13152635, 2.9967232, 7.0314854e-7)]
        point3f[] points.timeSamples = {
            0: [(0, 0, 0), (1.9978155, 0.08768422, 0.0000034393743), (-0.13152635, 2.9967232, 7.0314854e-7)],
        }
        color3f[] primvars:displayColor = [(0.12, 0.48, 0.62)]
        uniform token subdivisionScheme = "none"
        double3 xformOp:translate = (650009.9890775036, 6860040.438421105, 40.00000781938434)
        uniform token[] xformOpOrder = ["xformOp:translate"]
    }

    def Mesh "Part5" (
        apiSchemas = None
    )
    {
        int[] faceVertexCounts = [3]
        int[] faceVertexIndices = [0, 1, 2]
        point3f[] points = [(0, 0, 0), (1.9978156, 0.08768423, 0.000006567687), (-0.13152637, 2.9967234, 7.050112e-7)]
        point3f[] points.timeSamples = {
            0: [(0, 0, 0), (1.9978156, 0.08768423, 0.000006567687), (-0.13152637, 2.9967234, 7.050112e-7)],
        }
        color3f[] primvars:displayColor = [(0.12, 0.48, 0.62)]
        uniform token subdivisionScheme = "none"
        double3 xformOp:translate = (650019.9781553731, 6860040.876842241, 40.00003127474338)
        uniform token[] xformOpOrder = ["xformOp:translate"]
    }
}

