#usda 1.0
(
    customLayerData = {
        bool geospatialResolutionRequired = 1
    }
    metersPerUnit = 1
    upAxis = "Z"
)

def Scope "CRS"
{
    def CoordinateReferenceSystem "Source"
    {
        uniform token crs:wkt = 'COMPOUNDCRS["Westminster site grid + site height",DERIVEDPROJCRS["Westminster site grid",BASEPROJCRS["NAD83(2011) / Colorado Central (ftUS)",BASEGEOGCRS["NAD83(2011)",DATUM["NAD83 (National Spatial Reference System 2011)",ELLIPSOID["GRS 1980",6378137,298.257222101,LENGTHUNIT["metre",1]],ID["EPSG",1116]],PRIMEM["Greenwich",0,ANGLEUNIT["degree",0.0174532925199433]],ID["EPSG",6318]],CONVERSION["SPCS83 Colorado Central zone (US survey foot)",METHOD["Lambert Conic Conformal (2SP)",ID["EPSG",9802]],PARAMETER["Latitude of false origin",37.8333333333333,ANGLEUNIT["degree",0.0174532925199433],ID["EPSG",8821]],PARAMETER["Longitude of false origin",-105.5,ANGLEUNIT["degree",0.0174532925199433],ID["EPSG",8822]],PARAMETER["Latitude of 1st standard parallel",39.75,ANGLEUNIT["degree",0.0174532925199433],ID["EPSG",8823]],PARAMETER["Latitude of 2nd standard parallel",38.45,ANGLEUNIT["degree",0.0174532925199433],ID["EPSG",8824]],PARAMETER["Easting at false origin",3000000,LENGTHUNIT["US survey foot",0.304800609601219],ID["EPSG",8826]],PARAMETER["Northing at false origin",1000000,LENGTHUNIT["US survey foot",0.304800609601219],ID["EPSG",8827]],ID["EPSG",15314]],ID["EPSG",6428]],DERIVINGCONVERSION["Westminster site calibration (horizontal)",METHOD["Affine parametric transformation",ID["EPSG",9624]],PARAMETER["A0",503.9253920478007,LENGTHUNIT["US survey foot",0.304800609601219],ID["EPSG",8623]],PARAMETER["A1",1.000231041946945,SCALEUNIT["coefficient",1],ID["EPSG",8624]],PARAMETER["A2",-0.00020126312919239097,SCALEUNIT["coefficient",1],ID["EPSG",8625]],PARAMETER["B0",-546977.9701600745,LENGTHUNIT["US survey foot",0.304800609601219],ID["EPSG",8639]],PARAMETER["B1",0.00020126312919239097,SCALEUNIT["coefficient",1],ID["EPSG",8640]],PARAMETER["B2",1.000231041946945,SCALEUNIT["coefficient",1],ID["EPSG",8641]]],CS[CARTESIAN,2],AXIS["site easting (E)",EAST,ORDER[1],LENGTHUNIT["US survey foot",0.304800609601219]],AXIS["site northing (N)",NORTH,ORDER[2],LENGTHUNIT["US survey foot",0.304800609601219]]],VERTCRS["Westminster site height",BASEVERTCRS["NAVD88 height (ftUS)",VDATUM["North American Vertical Datum 1988",ID["EPSG",5103]],ID["EPSG",6360]],DERIVINGCONVERSION["Westminster site calibration (vertical)",METHOD["Vertical Offset and Slope",ID["EPSG",1046]],PARAMETER["Ordinate 1 of evaluation point",39.89815166091368,ANGLEUNIT["degree",0.0174532925199433],ID["EPSG",8617]],PARAMETER["Ordinate 2 of evaluation point",-105.11508529887352,ANGLEUNIT["degree",0.0174532925199433],ID["EPSG",8618]],PARAMETER["Vertical Offset",1.7355492174519394,LENGTHUNIT["US survey foot",0.304800609601219],ID["EPSG",8603]],PARAMETER["Inclination in latitude",-18.196450752028323,ANGLEUNIT["arc-second",0.00000484813681109536],ID["EPSG",8730]],PARAMETER["Inclination in longitude",-11.949966705964858,ANGLEUNIT["arc-second",0.00000484813681109536],ID["EPSG",8731]],PARAMETER["EPSG code for Horizontal CRS",6318,ID["EPSG",1037]]],CS[VERTICAL,1],AXIS["site height (H)",UP,LENGTHUNIT["US survey foot",0.304800609601219]]]]'
    }
}

def Scope "Controls" (
    prepend apiSchemas = ["GeospatialBindingAPI"]
)
{
    rel crs:binding = </CRS/Source>
    rel crs:coordinateProperties = </Controls.data:coordinates>
    custom double3[] data:coordinates = [(3108871.4501, 1206317.4694, 5484.6779), (3109275.2084, 1205981.9186, 5465.4396), (3109032.5376, 1205309.0878, 5446.1388), (3108471.3907, 1205876.19, 5466.4799), (3109885.7385, 1205459.0391, 5453.9378)]
    custom string[] data:ids = ["Control1", "Control2", "Control3", "Control4", "Control5"]
    custom double[] data:values = [0, 1, 2, 3, 4]
}

