#usda 1.0
(
    customLayerData = {
        bool geospatialResolutionRequired = 1
    }
    metersPerUnit = 1
    upAxis = "Z"
)

def Scope "CRS"
{
    def CoordinateReferenceSystem "Source"
    {
        uniform token crs:wkt = 'COMPOUNDCRS["RGF93 v2b / Lambert-93 + NGF-IGN69 height",PROJCRS["RGF93 v2b / Lambert-93",BASEGEOGCRS["RGF93 v2b",DATUM["Reseau Geodesique Francais 1993 v2b",ELLIPSOID["GRS 1980",6378137,298.257222101,LENGTHUNIT["metre",1]],ID["EPSG",1313]],PRIMEM["Greenwich",0,ANGLEUNIT["degree",0.0174532925199433]],ID["EPSG",9782]],CONVERSION["Lambert-93",METHOD["Lambert Conic Conformal (2SP)",ID["EPSG",9802]],PARAMETER["Latitude of false origin",46.5,ANGLEUNIT["degree",0.0174532925199433],ID["EPSG",8821]],PARAMETER["Longitude of false origin",3,ANGLEUNIT["degree",0.0174532925199433],ID["EPSG",8822]],PARAMETER["Latitude of 1st standard parallel",49,ANGLEUNIT["degree",0.0174532925199433],ID["EPSG",8823]],PARAMETER["Latitude of 2nd standard parallel",44,ANGLEUNIT["degree",0.0174532925199433],ID["EPSG",8824]],PARAMETER["Easting at false origin",700000,LENGTHUNIT["metre",1],ID["EPSG",8826]],PARAMETER["Northing at false origin",6600000,LENGTHUNIT["metre",1],ID["EPSG",8827]],ID["EPSG",18085]],CS[CARTESIAN,2],AXIS["easting (E)",EAST,ORDER[1],LENGTHUNIT["metre",1]],AXIS["northing (N)",NORTH,ORDER[2],LENGTHUNIT["metre",1]],ID["EPSG",9794]],VERTCRS["NGF-IGN69 height",VDATUM["Nivellement General de la France - IGN69",ID["EPSG",5119]],CS[VERTICAL,1],AXIS["gravity-related height (H)",UP,LENGTHUNIT["metre",1]],ID["EPSG",5720]],ID["EPSG",10499]]'
    }
}

def Scope "Controls" (
    prepend apiSchemas = ["GeospatialBindingAPI"]
)
{
    rel crs:binding = </CRS/Source>
    rel crs:coordinateProperties = </Controls.data:coordinates>
    custom double3[] data:coordinates = [(661101.1094, 6857834.2565, 37.298), (661225.1237, 6857827.0213, 37.557), (661214.4802, 6857823.5506, 37.668), (661209.7139, 6857821.9914, 37.598), (661205.3595, 6857820.5673, 37.542), (661201.653, 6857819.3674, 37.48), (661205.8158, 6857845.4231, 37.63), (661170.6863, 6857802.221, 37.518), (661114.0207, 6857801.0158, 37.377), (661107.444, 6857808.6786, 37.482), (661096.8807, 6857808.0438, 37.077), (661115.8728, 6857889.4096, 35.855), (661123.3463, 6857871.2515, 36.444), (661127.3134, 6857858.7103, 36.917), (661150.9024, 6857865.1543, 37.503), (661135.7112, 6857824.5994, 37.607), (661078.5707, 6857830.2127, 36.577), (661093.8201, 6857836.8044, 36.893), (661139.5013, 6857808.4073, 37.633), (661169.0274, 6857817.0267, 37.585), (661171.2639, 6857799.7263, 37.513), (661119.3125, 6857782.1432, 37.384), (661174.5114, 6857875.3171, 37.459), (661146.3645, 6857791.35, 37.586), (661097.7334, 6857812.5978, 37.007), (661240.1843, 6857851.589, 37.592), (661251.8578, 6857832.3612, 37.866), (661218.8853, 6857818.4261, 37.749), (661135.3795, 6857823.2704, 37.61), (661167.545, 6857855.8922, 37.526), (661202.0436, 6857817.1956, 37.534), (661232.4842, 6857830.918, 37.479), (661198.5825, 6857810.64, 37.556), (661108.4818, 6857805.3331, 36.49), (661128.9784, 6857843.6085, 37.518), (661154.9131, 6857850.7401, 37.483), (661185.398, 6857863.5956, 37.413), (661202.5713, 6857866.3801, 37.491), (661231.0941, 6857876.3342, 37.288), (661170.6256, 6857890.3852, 37.407), (661146.156, 6857879.0073, 37.111), (661151.5521, 6857855.111, 37.375), (661154.6581, 6857846.9803, 37.635), (661158.5356, 6857848.1962, 37.603), (661158.0942, 6857857.2176, 37.541), (661174.6859, 6857862.5268, 37.595), (661205.4041, 6857866.5649, 37.56), (661226.7806, 6857867.9145, 37.488), (661229.2116, 6857889.818, 37.08), (661241.3696, 6857831.4484, 37.862), (661229.7502, 6857839.2039, 37.36), (661228.7834, 6857845.9332, 37.46), (661225.2887, 6857856.8267, 37.512), (661198.3168, 6857824.5072, 37.57), (661192.3371, 6857843.1536, 37.533), (661187.7105, 6857857.5266, 37.652), (661178.582, 6857857.5191, 37.533), (661162.7399, 6857835.0441, 37.643), (661206.471, 6857863.1493, 37.76)]
    custom string[] data:ids = ["2", "15", "16", "17", "18", "19", "21", "24", "27", "28", "29", "34", "35", "36", "37", "39", "100", "A", "AA", "AB", "AC", "AD", "AE", "AF", "AG", "AH", "AI", "AJ", "AK", "AL", "AM", "AN", "AP", "AQ", "B", "C", "D", "E", "F", "G", "I", "J", "K", "L", "M", "N", "O", "P", "Q", "R", "S", "T", "U", "V", "W", "X", "XX", "Y", "Z"]
    custom double[] data:values = [0, 1, 2, 3, 4, 5, 6, 7, 8, 9, 10, 11, 12, 13, 14, 15, 16, 17, 18, 19, 20, 21, 22, 23, 24, 25, 26, 27, 28, 29, 30, 31, 32, 33, 34, 35, 36, 37, 38, 39, 40, 41, 42, 43, 44, 45, 46, 47, 48, 49, 50, 51, 52, 53, 54, 55, 56, 57, 58]
}

