#usda 1.0
(
    customLayerData = {
        bool geospatialResolutionRequired = 1
    }
    metersPerUnit = 1
    upAxis = "Z"
)

def Scope "CRS"
{
    def CoordinateReferenceSystem "Source"
    {
        uniform token crs:wkt = 'COMPOUNDCRS["RGF93 v2b / CC49 + NGF-IGN69 height",PROJCRS["RGF93 v2b / CC49",BASEGEOGCRS["RGF93 v2b",DATUM["Reseau Geodesique Francais 1993 v2b",ELLIPSOID["GRS 1980",6378137,298.257222101,LENGTHUNIT["metre",1]],ID["EPSG",1313]],PRIMEM["Greenwich",0,ANGLEUNIT["degree",0.0174532925199433]],ID["EPSG",9782]],CONVERSION["France Conic Conformal zone 8",METHOD["Lambert Conic Conformal (2SP)",ID["EPSG",9802]],PARAMETER["Latitude of false origin",49,ANGLEUNIT["degree",0.0174532925199433],ID["EPSG",8821]],PARAMETER["Longitude of false origin",3,ANGLEUNIT["degree",0.0174532925199433],ID["EPSG",8822]],PARAMETER["Latitude of 1st standard parallel",48.25,ANGLEUNIT["degree",0.0174532925199433],ID["EPSG",8823]],PARAMETER["Latitude of 2nd standard parallel",49.75,ANGLEUNIT["degree",0.0174532925199433],ID["EPSG",8824]],PARAMETER["Easting at false origin",1700000,LENGTHUNIT["metre",1],ID["EPSG",8826]],PARAMETER["Northing at false origin",8200000,LENGTHUNIT["metre",1],ID["EPSG",8827]],ID["EPSG",18108]],CS[CARTESIAN,2],AXIS["easting (E)",EAST,ORDER[1],LENGTHUNIT["metre",1]],AXIS["northing (N)",NORTH,ORDER[2],LENGTHUNIT["metre",1]],ID["EPSG",9849]],VERTCRS["NGF-IGN69 height",VDATUM["Nivellement General de la France - IGN69",ID["EPSG",5119]],CS[VERTICAL,1],AXIS["gravity-related height (H)",UP,LENGTHUNIT["metre",1]],ID["EPSG",5720]]]'
    }
}

def Scope "Controls" (
    prepend apiSchemas = ["GeospatialBindingAPI"]
)
{
    rel crs:binding = </CRS/Source>
    rel crs:coordinateProperties = </Controls.data:coordinates>
    custom double3[] data:coordinates = [(1661099.039, 8180053.117, 37.298), (1661223.058, 8180045.848, 37.557), (1661212.413, 8180042.38, 37.668), (1661207.646, 8180040.822, 37.598), (1661203.291, 8180039.399, 37.542), (1661199.584, 8180038.2, 37.48), (1661203.754, 8180064.256, 37.63), (1661168.611, 8180021.061, 37.518), (1661111.942, 8180019.871, 37.377), (1661105.367, 8180027.536, 37.482), (1661094.803, 8180026.904, 37.077), (1661113.818, 8180108.269, 35.855), (1661121.287, 8180090.108, 36.444), (1661125.251, 8180077.565, 36.917), (1661148.843, 8180084.003, 37.503), (1661133.64, 8180043.45, 37.607), (1661076.498, 8180049.079, 36.577), (1661091.75, 8180055.667, 36.893), (1661137.426, 8180027.256, 37.633), (1661166.956, 8180035.868, 37.585), (1661169.188, 8180018.566, 37.513), (1661117.229, 8180000.996, 37.384), (1661172.456, 8180094.16, 37.459), (1661144.285, 8180010.196, 37.586), (1661095.657, 8180031.458, 37.007), (1661238.126, 8180070.413, 37.592), (1661249.795, 8180051.181, 37.866), (1661216.817, 8180037.254, 37.749), (1661133.308, 8180042.121, 37.61), (1661165.484, 8180074.736, 37.526), (1661199.974, 8180036.028, 37.534), (1661230.42, 8180049.743, 37.479), (1661196.511, 8180029.473, 37.556), (1661106.404, 8180024.19, 36.49), (1661126.912, 8180062.462, 37.518), (1661152.85, 8180069.587, 37.483), (1661183.34, 8180082.435, 37.413), (1661200.515, 8180085.215, 37.491), (1661229.042, 8180095.162, 37.288), (1661168.574, 8180109.23, 37.407), (1661144.1, 8180097.858, 37.111), (1661149.49, 8180073.959, 37.375), (1661152.594, 8180065.827, 37.635), (1661156.472, 8180067.042, 37.603), (1661156.033, 8180076.064, 37.541), (1661172.627, 8180081.369, 37.595), (1661203.348, 8180085.399, 37.56), (1661224.726, 8180086.743, 37.488), (1661227.163, 8180108.647, 37.08), (1661239.306, 8180050.271, 37.862), (1661227.688, 8180058.03, 37.36), (1661226.723, 8180064.76, 37.46), (1661223.231, 8180075.655, 37.512), (1661196.249, 8180043.341, 37.57), (1661190.274, 8180061.99, 37.533), (1661185.651, 8180076.365, 37.652), (1661176.522, 8180076.36, 37.533), (1661160.673, 8180053.888, 37.643), (1661204.414, 8180081.983, 37.76)]
    custom string[] data:ids = ["2", "15", "16", "17", "18", "19", "21", "24", "27", "28", "29", "34", "35", "36", "37", "39", "100", "A", "AA", "AB", "AC", "AD", "AE", "AF", "AG", "AH", "AI", "AJ", "AK", "AL", "AM", "AN", "AP", "AQ", "B", "C", "D", "E", "F", "G", "I", "J", "K", "L", "M", "N", "O", "P", "Q", "R", "S", "T", "U", "V", "W", "X", "XX", "Y", "Z"]
    custom double[] data:values = [0, 1, 2, 3, 4, 5, 6, 7, 8, 9, 10, 11, 12, 13, 14, 15, 16, 17, 18, 19, 20, 21, 22, 23, 24, 25, 26, 27, 28, 29, 30, 31, 32, 33, 34, 35, 36, 37, 38, 39, 40, 41, 42, 43, 44, 45, 46, 47, 48, 49, 50, 51, 52, 53, 54, 55, 56, 57, 58]
}

