#usda 1.0
(
    customLayerData = {
        bool geospatialResolutionRequired = 1
    }
    metersPerUnit = 1
    upAxis = "Z"
)

def Scope "CRS"
{
    def CoordinateReferenceSystem "Source"
    {
        uniform token crs:wkt = 'GEOGCRS["RGF93 v2b",DATUM["Reseau Geodesique Francais 1993 v2b",ELLIPSOID["GRS 1980",6378137,298.257222101,LENGTHUNIT["metre",1]],ID["EPSG",1313]],PRIMEM["Greenwich",0,ANGLEUNIT["degree",0.0174532925199433]],CS[ELLIPSOIDAL,3],AXIS["geodetic latitude (Lat)",NORTH,ORDER[1],ANGLEUNIT["degree",0.0174532925199433]],AXIS["geodetic longitude (Lon)",EAST,ORDER[2],ANGLEUNIT["degree",0.0174532925199433]],AXIS["ellipsoidal height (h)",UP,ORDER[3],LENGTHUNIT["metre",1]],ID["EPSG",9781]]'
    }
}

def Scope "Controls" (
    prepend apiSchemas = ["GeospatialBindingAPI"]
)
{
    rel crs:binding = </CRS/Source>
    rel crs:coordinateProperties = </Controls.data:coordinates>
    custom double3[] data:coordinates = [(2.4702269726, 48.8193987692, 81.0525), (2.4719165603, 48.8193411711, 81.3112), (2.4717719248, 48.819309318, 81.4222), (2.4717071552, 48.8192950089, 81.3523), (2.4716479835, 48.8192819396, 81.2963), (2.4715976151, 48.8192709252, 81.2343), (2.4716519327, 48.8195055028, 81.3843), (2.4711774497, 48.819114858, 81.2723), (2.4704058449, 48.819100604, 81.1314), (2.4703155784, 48.8191691213, 81.2364), (2.4701717779, 48.8191627749, 80.8314), (2.4704229946, 48.8198956676, 79.6095), (2.4705264339, 48.8197328178, 80.1985), (2.4705816075, 48.8196202697, 80.6715), (2.4709022753, 48.8196796445, 81.2574), (2.4706990892, 48.8193140062, 81.3614), (2.4699203918, 48.8193610412, 80.3315), (2.4701274681, 48.8194212433, 80.6475), (2.4707521845, 48.8191686141, 81.3873), (2.4711535072, 48.8192479108, 81.3393), (2.4711855439, 48.8190924571, 81.2673), (2.4704796361, 48.8189311964, 81.1383), (2.471222877, 48.819772464, 81.2134), (2.4708472098, 48.8190156268, 81.3403), (2.4701829748, 48.8192037817, 80.7614), (2.4721194309, 48.8195630218, 81.3463), (2.4722801613, 48.8193908017, 81.6202), (2.4718323843, 48.8192634965, 81.5032), (2.4706946942, 48.8193020339, 81.3644), (2.471129774, 48.8195973509, 81.2804), (2.471603132, 48.8192514172, 81.2883), (2.4720164475, 48.8193766586, 81.2332), (2.4715565942, 48.8191922526, 81.3103), (2.4703300182, 48.8191390964, 80.2444), (2.4706056615, 48.8194845555, 81.2724), (2.4709582113, 48.8195502553, 81.2374), (2.471372209, 48.819667705, 81.1674), (2.4716058371, 48.8196937803, 81.2453), (2.4719933798, 48.8197850167, 81.0423), (2.4711685816, 48.8199077424, 81.1614), (2.4708363692, 48.8198039425, 80.8655), (2.4709120395, 48.8195893613, 81.1294), (2.4709550819, 48.8195164263, 81.3894), (2.4710077776, 48.8195275956, 81.3574), (2.4710009431, 48.8196087012, 81.2954), (2.471226419, 48.8196574477, 81.3494), (2.4716443998, 48.8196956123, 81.3143), (2.4719354013, 48.8197090363, 81.2423), (2.4719665139, 48.8199061671, 80.8343), (2.4721374076, 48.8193819625, 81.6162), (2.471978458, 48.8194510111, 81.1143), (2.4719646791, 48.8195114723, 81.2143), (2.4719160926, 48.8196092305, 81.2663), (2.4715517116, 48.8193169485, 81.3243), (2.4714685757, 48.8194842812, 81.2873), (2.4714042561, 48.8196132634, 81.4064), (2.4712799367, 48.8196126467, 81.2874), (2.4710662353, 48.8194095675, 81.3974), (2.4716592406, 48.8196649596, 81.5143)]
    custom string[] data:ids = ["2", "15", "16", "17", "18", "19", "21", "24", "27", "28", "29", "34", "35", "36", "37", "39", "100", "A", "AA", "AB", "AC", "AD", "AE", "AF", "AG", "AH", "AI", "AJ", "AK", "AL", "AM", "AN", "AP", "AQ", "B", "C", "D", "E", "F", "G", "I", "J", "K", "L", "M", "N", "O", "P", "Q", "R", "S", "T", "U", "V", "W", "X", "XX", "Y", "Z"]
    custom double[] data:values = [0, 1, 2, 3, 4, 5, 6, 7, 8, 9, 10, 11, 12, 13, 14, 15, 16, 17, 18, 19, 20, 21, 22, 23, 24, 25, 26, 27, 28, 29, 30, 31, 32, 33, 34, 35, 36, 37, 38, 39, 40, 41, 42, 43, 44, 45, 46, 47, 48, 49, 50, 51, 52, 53, 54, 55, 56, 57, 58]
}

